<?xml version="1.0" encoding="utf-8"?>
<svg focusable="false" height="100%" shape-rendering="geometricPrecision" version="1.1" viewBox="0 0 880 150" width="100%" xmlns="http://www.w3.org/2000/svg">
	<title>Nirvarnia</title>
    <rect id="background" x="0" y="0" width="880" height="150" style="fill:#fada5e;"/>
    <path id="logotype" d="M138.214,100l-5.369,0c-0.292,-0.04 -0.604,-0.841 -0.937,-2.404l-6.865,-33.233c-0.208,-0.962 -0.541,-1.623 -1,-1.983c-0.562,-0.461 -0.843,-0.872 -0.843,-1.232c0,-1.382 0.062,-2.164 0.187,-2.344c0.125,-0.18 0.51,-0.27 1.156,-0.27l10.961,0c0.604,0 1.004,0.125 1.202,0.375c0.198,0.251 0.297,0.857 0.297,1.818c0,0.561 -0.047,0.922 -0.141,1.082c-0.094,0.16 -0.37,0.36 -0.828,0.601c-0.562,0.3 -0.843,0.721 -0.843,1.261c0,0.381 0.062,0.842 0.187,1.382l3.407,16.492l3.521,-16.486c0.063,-0.341 0.094,-0.672 0.094,-0.993c0,-0.843 -0.344,-1.475 -1.031,-1.897c-0.416,-0.24 -0.625,-0.681 -0.625,-1.322l0,-1.622c0,-0.461 0.239,-0.691 0.717,-0.691l5.985,0c0.478,0 0.774,0.055 0.888,0.165c0.114,0.11 0.171,0.406 0.171,0.886l0,1.443c0,0.4 -0.015,0.651 -0.047,0.751c-0.031,0.1 -0.286,0.3 -0.765,0.601c-0.666,0.441 -1.135,1.332 -1.406,2.674l-6.543,31.791c-0.354,1.783 -0.577,2.754 -0.671,2.915c-0.094,0.16 -0.38,0.24 -0.859,0.24Zm129.852,-29.537l0,-5.8c0,-1.602 -0.677,-2.403 -2.031,-2.403c-1.854,0 -2.78,1.212 -2.78,3.635c0,1.363 -0.162,2.334 -0.485,2.915c-0.322,0.581 -1.051,1.077 -2.186,1.487c-1.136,0.411 -2.349,0.616 -3.64,0.616c-2.645,0 -3.968,-1.362 -3.968,-4.086c0,-2.564 1.151,-4.658 3.452,-6.28c2.302,-1.623 5.306,-2.434 9.014,-2.434c2.436,0 4.628,0.32 6.576,0.961c1.947,0.64 3.503,1.721 4.667,3.242c1.164,1.522 1.749,3.193 1.753,5.014l0,27.413c0.042,0.139 0.354,0.44 0.937,0.9c0.417,0.301 0.625,0.741 0.625,1.322c0,0.801 -0.115,1.367 -0.344,1.698c-0.229,0.33 -0.786,0.636 -1.671,0.916c-0.885,0.281 -1.994,0.421 -3.327,0.421c-1.625,0 -2.979,-0.285 -4.062,-0.856c-1.083,-0.571 -1.926,-1.688 -2.53,-3.351c-1.812,1.803 -3.281,2.955 -4.405,3.456c-1.125,0.501 -2.281,0.751 -3.468,0.751c-2.641,0 -4.686,-0.996 -6.136,-2.987c-1.449,-1.991 -2.174,-5.248 -2.174,-9.77c0.002,-4.523 0.679,-7.66 2.032,-9.411c1.353,-1.751 3.997,-3.367 7.934,-4.848c2.499,-0.92 4.571,-1.761 6.217,-2.521Zm-101.285,0l0,-5.8c0,-1.602 -0.676,-2.403 -2.03,-2.403c-1.854,0 -2.781,1.212 -2.781,3.635c0,1.363 -0.161,2.334 -0.484,2.915c-0.323,0.581 -1.052,1.077 -2.187,1.487c-1.135,0.411 -2.348,0.616 -3.639,0.616c-2.646,0 -3.968,-1.362 -3.968,-4.086c0,-2.564 1.151,-4.658 3.452,-6.28c2.302,-1.623 5.306,-2.434 9.013,-2.434c2.437,0 4.629,0.32 6.576,0.961c1.948,0.64 3.504,1.721 4.668,3.242c1.164,1.522 1.748,3.193 1.753,5.014l0,27.413c0.041,0.139 0.354,0.44 0.937,0.9c0.416,0.301 0.625,0.741 0.625,1.322c0,0.801 -0.115,1.367 -0.344,1.698c-0.229,0.33 -0.786,0.636 -1.671,0.916c-0.886,0.281 -1.995,0.421 -3.328,0.421c-1.624,0 -2.978,-0.285 -4.061,-0.856c-1.083,-0.571 -1.927,-1.688 -2.531,-3.351c-1.812,1.803 -3.28,2.955 -4.405,3.456c-1.124,0.501 -2.28,0.751 -3.467,0.751c-2.641,0 -4.686,-0.996 -6.136,-2.987c-1.45,-1.991 -2.175,-5.248 -2.175,-9.77c0.002,-4.523 0.68,-7.66 2.033,-9.411c1.352,-1.751 3.997,-3.367 7.933,-4.848c2.5,-0.92 4.572,-1.761 6.217,-2.521Zm-102.343,29.116l-8.285,0c-0.415,0 -0.675,-0.155 -0.779,-0.465c-0.103,-0.311 -0.155,-1.077 -0.155,-2.299c0,-0.561 0.277,-0.952 0.832,-1.172c1.07,-0.461 1.605,-0.982 1.605,-1.562l0,-35.517c0,-0.862 -0.083,-1.508 -0.247,-1.938c-0.165,-0.431 -0.536,-0.787 -1.112,-1.067c-0.515,-0.24 -0.86,-0.501 -1.035,-0.781c-0.175,-0.281 -0.262,-0.812 -0.262,-1.593c0,-1.402 0.383,-2.103 1.15,-2.103l8.642,0l10.515,23.454l0,-17.29c0,-0.963 -0.51,-1.646 -1.531,-2.048c-0.604,-0.26 -0.994,-0.556 -1.172,-0.886c-0.177,-0.331 -0.265,-0.977 -0.265,-1.938c0,-0.601 0.062,-0.967 0.187,-1.097c0.125,-0.13 0.365,-0.195 0.719,-0.195l8.623,0c0.479,0.06 0.718,0.721 0.718,1.983c0,0.741 -0.047,1.212 -0.14,1.412c-0.094,0.2 -0.308,0.371 -0.641,0.511c-0.729,0.28 -1.187,0.551 -1.375,0.811c-0.187,0.261 -0.281,0.621 -0.281,1.082l0,42.698l-5.311,0l-12.246,-27.494l0,21.214c0,0.882 0.52,1.543 1.562,1.983c0.874,0.381 1.312,0.922 1.312,1.623c0,1.462 -0.037,2.274 -0.109,2.434c-0.073,0.16 -0.379,0.24 -0.919,0.24Zm33.146,0l-12.094,0c-0.291,-0.04 -0.478,-0.165 -0.561,-0.375c-0.083,-0.211 -0.125,-0.767 -0.125,-1.668c0,-1.082 0.271,-1.713 0.812,-1.893c0.667,-0.22 1,-0.621 1,-1.202l0,-29.958c0,-1.162 -0.448,-1.863 -1.343,-2.103c-0.375,-0.1 -0.563,-0.391 -0.563,-0.872l0,-1.983c0,-0.661 0.417,-0.991 1.25,-0.991l9.966,0c0.708,0 1.062,0.33 1.062,0.991l0,34.556c0,0.48 0.031,0.791 0.092,0.931c0.062,0.14 0.246,0.27 0.553,0.391c0.736,0.28 1.105,0.901 1.105,1.863c0,1.101 -0.052,1.762 -0.156,1.983c-0.104,0.22 -0.437,0.33 -0.998,0.33Zm150.584,0l-12.095,0c-0.291,-0.04 -0.478,-0.165 -0.561,-0.375c-0.083,-0.211 -0.125,-0.767 -0.125,-1.668c0,-1.082 0.271,-1.713 0.813,-1.893c0.666,-0.22 0.999,-0.621 0.999,-1.202l0,-29.958c0,-1.162 -0.447,-1.863 -1.343,-2.103c-0.375,-0.1 -0.562,-0.391 -0.562,-0.872l0,-1.983c0,-0.661 0.416,-0.991 1.249,-0.991l9.966,0c0.708,0 1.063,0.33 1.063,0.991l0,34.556c0,0.48 0.03,0.791 0.092,0.931c0.061,0.14 0.245,0.27 0.552,0.391c0.737,0.28 1.105,0.901 1.105,1.863c0,1.101 -0.052,1.762 -0.156,1.983c-0.104,0.22 -0.436,0.33 -0.997,0.33Zm-133.435,0l-11.778,0c-0.812,0 -1.218,-0.37 -1.218,-1.111l0,-1.653c0,-0.561 0.177,-0.932 0.531,-1.112c0.708,-0.34 1.062,-0.861 1.062,-1.562l0,-30.259c0,-0.681 -0.25,-1.172 -0.749,-1.472c-0.542,-0.301 -0.854,-0.536 -0.938,-0.706c-0.083,-0.171 -0.125,-0.686 -0.125,-1.548c0,-0.721 0.11,-1.172 0.328,-1.352c0.219,-0.18 0.589,-0.27 1.109,-0.27l8.436,0c0.395,0 0.666,0.105 0.812,0.315c0.146,0.21 0.219,0.716 0.219,1.518l0,6.159c0.249,-0.48 0.551,-1.322 0.906,-2.524c0.791,-2.604 1.567,-4.236 2.327,-4.897c0.76,-0.661 1.599,-0.992 2.515,-0.992c1.25,0 2.192,0.571 2.827,1.713c0.636,1.142 0.953,2.574 0.953,4.297c0,3.706 -1.083,5.558 -3.249,5.558c-1.083,0 -1.916,-0.61 -2.499,-1.832c-0.354,-0.702 -0.719,-1.052 -1.094,-1.052c-0.937,0 -1.406,0.991 -1.406,2.975l0,24.008c0,0.761 0.365,1.322 1.094,1.683c0.729,0.34 1.093,0.891 1.093,1.652l0,1.353c0,0.48 -0.057,0.786 -0.171,0.916c-0.115,0.13 -0.443,0.195 -0.985,0.195Zm79.947,0l-11.778,0c-0.812,0 -1.218,-0.37 -1.218,-1.111l0,-1.653c0,-0.561 0.177,-0.932 0.531,-1.112c0.708,-0.34 1.062,-0.861 1.062,-1.562l0,-30.259c0,-0.681 -0.25,-1.172 -0.75,-1.472c-0.541,-0.301 -0.854,-0.536 -0.937,-0.706c-0.083,-0.171 -0.125,-0.686 -0.125,-1.548c0,-0.721 0.109,-1.172 0.328,-1.352c0.219,-0.18 0.588,-0.27 1.109,-0.27l8.435,0c0.396,0 0.667,0.105 0.812,0.315c0.146,0.21 0.219,0.716 0.219,1.518l0,6.159c0.25,-0.48 0.552,-1.322 0.906,-2.524c0.792,-2.604 1.567,-4.236 2.328,-4.897c0.76,-0.661 1.598,-0.992 2.514,-0.992c1.25,0 2.193,0.571 2.828,1.713c0.635,1.142 0.953,2.574 0.953,4.297c0,3.706 -1.083,5.558 -3.249,5.558c-1.083,0 -1.917,-0.61 -2.5,-1.832c-0.354,-0.702 -0.718,-1.052 -1.093,-1.052c-0.937,0 -1.406,0.991 -1.406,2.975l0,24.008c0,0.761 0.364,1.322 1.093,1.683c0.729,0.34 1.094,0.891 1.094,1.652l0,1.353c0,0.48 -0.057,0.786 -0.172,0.916c-0.114,0.13 -0.442,0.195 -0.984,0.195Zm21.494,0l-11.091,0c-0.541,0 -0.885,-0.075 -1.031,-0.225c-0.145,-0.15 -0.218,-0.526 -0.218,-1.127l0,-1.112c0,-0.581 0.187,-0.991 0.562,-1.232c0.5,-0.34 0.823,-0.661 0.968,-0.961c0.146,-0.301 0.219,-0.962 0.219,-1.983l0,-29.387c0,-0.701 -0.354,-1.212 -1.062,-1.533c-0.396,-0.18 -0.594,-0.501 -0.594,-0.961l0,-1.593c0,-0.621 0.292,-0.931 0.875,-0.931l10.185,0c0.437,0 0.708,0.06 0.812,0.18c0.104,0.12 0.156,0.371 0.156,0.751l0,3.155c2.479,-3.005 5.311,-4.507 8.498,-4.507c2.176,0 3.84,0.676 4.991,2.028c1.15,1.352 1.726,3.05 1.726,5.093l0,28.786c0,0.641 0.26,1.132 0.781,1.473c0.479,0.28 0.718,1.001 0.718,2.163c0,0.922 -0.078,1.473 -0.234,1.653c-0.156,0.18 -0.484,0.27 -0.984,0.27l-8.779,0c-1.249,-1.021 -1.874,-2.353 -1.874,-3.996l0,-28.576c0,-1.562 -0.667,-2.344 -2,-2.344c-0.875,0 -1.822,0.441 -2.843,1.323l0,28.034c0,0.722 0.365,1.282 1.094,1.683c0.437,0.241 0.656,0.681 0.656,1.322l0,1.533c0,0.681 -0.51,1.021 -1.531,1.021Zm51.892,-25.21c-2.354,1 -3.76,2.125 -4.218,3.375c-0.458,1.25 -0.687,4.065 -0.687,8.446c0,3.22 0.187,5.255 0.562,6.105c0.375,0.85 1.021,1.275 1.937,1.275c1.604,0 2.406,-1.28 2.406,-3.84l0,-15.361Zm-101.285,0c-2.353,1 -3.759,2.125 -4.217,3.375c-0.458,1.25 -0.687,4.065 -0.687,8.446c0,3.22 0.187,5.255 0.562,6.105c0.375,0.85 1.02,1.275 1.937,1.275c1.604,0 2.405,-1.28 2.405,-3.84l0,-15.361Zm-73.323,-24.369c2.354,0 3.53,0.761 3.53,2.284c0,1.202 -0.786,2.218 -2.358,3.05c-1.573,0.831 -3.359,1.247 -5.358,1.247c-2.583,0 -3.874,-0.832 -3.874,-2.494c0,-1.323 0.906,-2.334 2.718,-3.035c1.812,-0.701 3.593,-1.052 5.342,-1.052Zm150.583,0c2.354,0 3.531,0.761 3.531,2.284c0,1.202 -0.787,2.218 -2.359,3.05c-1.573,0.831 -3.359,1.247 -5.358,1.247c-2.583,0 -3.874,-0.832 -3.874,-2.494c0,-1.323 0.906,-2.334 2.718,-3.035c1.812,-0.701 3.593,-1.052 5.342,-1.052Z" style="fill:#fff;"/>
    <g id="logomark">
        <path id="tl" d="M792.39,49.568l0,32.326l-28.38,0l-0.052,0c-7.826,-0.037 -14.175,-6.554 -14.175,-14.555l0,-10.373l0,-7.397l0,-14.569l28.429,0c7.791,0.043 14.178,6.565 14.178,14.568Z" style="fill:#fff;fill-opacity:0.4;"/>
        <path id="bl" d="M792.39,106.15l0,-5.671l0,-5.074l0,-8.804l-17.266,0l-0.042,0c-4.724,0 -8.583,3.982 -8.583,8.804l0,19.595l17.31,0c4.721,-0.041 8.581,-3.982 8.581,-8.85Z" style="fill:#fff;fill-opacity:0.4;"/>
        <path id="tr" d="M797.39,49.568l0,32.326l28.434,0c7.828,-0.038 14.176,-6.556 14.176,-14.556l0,-10.373l0,-7.397l0,-14.568l-28.345,0l-0.087,0c-7.789,0.043 -14.178,6.565 -14.178,14.568Z" style="fill:#fff;fill-opacity:0.4;"/>
        <path id="br" d="M797.39,106.15c0,4.868 3.86,8.809 8.587,8.85l17.306,0l0,-8.85l0,-4.441l0,-6.304c0,-4.822 -3.855,-8.804 -8.582,-8.804l-0.041,0l-17.27,0l0,19.549Z" style="fill:#fff;fill-opacity:0.4;"/>
    </g>
</svg>
