<?xml version="1.0" encoding="utf-8"?>
<svg focusable="false" height="80" shape-rendering="geometricPrecision" version="1.1" viewBox="0 0 400 80" width="400" xmlns="http://www.w3.org/2000/svg">
  <title>Nirvarnia</title>
  <!--<rect id="background" x="0" y="0" width="400" height="80" style="fill:#fff;"/>-->
  <g id="logomark">
    <path id="tl" d="M42.505,14.568L42.505,46.894L14.142,46.894C6.334,46.857 0,40.34 0,32.339L0,0L28.361,0C36.133,0.043 42.505,6.565 42.505,14.568Z" style="fill:rgb(252,233,162);"/>
    <path id="bl" d="M42.505,71.15L42.505,51.601L25.238,51.601C20.526,51.601 16.676,55.583 16.676,60.405L16.676,80L33.944,80C38.654,79.959 42.505,76.018 42.505,71.15Z" style="fill:rgb(252,233,162);"/>
    <path id="tr" d="M47.493,14.568L47.493,46.894L75.858,46.894C83.667,46.856 90,40.338 90,32.338L90,0L61.637,0C53.867,0.043 47.493,6.565 47.493,14.568Z" style="fill:rgb(252,233,162);"/>
    <path id="br" d="M47.493,71.15C47.493,76.018 51.343,79.959 56.059,80L73.323,80L73.323,60.405C73.323,55.583 69.477,51.601 64.762,51.601L47.493,51.601L47.493,71.15Z" style="fill:rgb(252,233,162);"/>
  </g>
  <path id="logotype" d="M209.857,70L203.414,70C203.064,69.952 202.689,68.99 202.29,67.115L194.052,27.236C193.802,26.082 193.402,25.288 192.852,24.856C192.177,24.303 191.84,23.81 191.84,23.377C191.84,21.719 191.915,20.781 192.065,20.565C192.215,20.349 192.677,20.24 193.451,20.24L206.604,20.24C207.329,20.24 207.81,20.391 208.047,20.691C208.285,20.992 208.403,21.719 208.403,22.873C208.403,23.546 208.347,23.978 208.234,24.171C208.122,24.363 207.791,24.603 207.241,24.892C206.566,25.252 206.229,25.757 206.229,26.406C206.229,26.862 206.304,27.415 206.454,28.064L210.542,47.854L214.768,28.071C214.843,27.662 214.88,27.264 214.88,26.879C214.88,25.867 214.468,25.109 213.643,24.603C213.143,24.315 212.893,23.786 212.893,23.017L212.893,21.07C212.893,20.517 213.18,20.24 213.754,20.24L220.935,20.24C221.508,20.24 221.864,20.306 222.001,20.439C222.138,20.571 222.206,20.925 222.206,21.502L222.206,23.233C222.206,23.714 222.188,24.014 222.15,24.135C222.113,24.255 221.806,24.495 221.232,24.856C220.432,25.385 219.869,26.454 219.545,28.065L211.693,66.214C211.268,68.353 211,69.519 210.887,69.712C210.775,69.904 210.432,70 209.857,70ZM365.679,34.555L365.679,27.596C365.679,25.673 364.867,24.712 363.242,24.712C361.018,24.712 359.906,26.166 359.906,29.075C359.906,30.709 359.712,31.875 359.324,32.572C358.937,33.269 358.062,33.864 356.7,34.357C355.338,34.85 353.882,35.096 352.333,35.096C349.159,35.096 347.572,33.462 347.572,30.192C347.572,27.115 348.952,24.603 351.714,22.656C354.476,20.709 358.081,19.736 362.53,19.736C365.454,19.736 368.085,20.12 370.421,20.889C372.758,21.657 374.625,22.954 376.022,24.78C377.419,26.605 378.12,28.611 378.126,30.796L378.126,63.691C378.176,63.859 378.55,64.219 379.25,64.772C379.75,65.132 380,65.661 380,66.358C380,67.32 379.863,67.999 379.588,68.395C379.313,68.792 378.644,69.159 377.582,69.495C376.52,69.832 375.189,70 373.589,70C371.64,70 370.015,69.657 368.716,68.972C367.416,68.287 366.404,66.947 365.679,64.952C363.505,67.115 361.743,68.498 360.393,69.099C359.043,69.7 357.656,70 356.232,70C353.063,70 350.608,68.805 348.869,66.416C347.129,64.027 346.259,60.118 346.259,54.691C346.262,49.264 347.075,45.5 348.698,43.398C350.321,41.297 353.495,39.358 358.219,37.581C361.218,36.477 363.705,35.468 365.679,34.555ZM244.138,34.555L244.138,27.596C244.138,25.673 243.325,24.712 241.701,24.712C239.477,24.712 238.364,26.166 238.364,29.075C238.364,30.709 238.171,31.875 237.783,32.572C237.396,33.269 236.521,33.864 235.159,34.357C233.797,34.85 232.341,35.096 230.791,35.096C227.617,35.096 226.03,33.462 226.03,30.192C226.03,27.115 227.411,24.603 230.173,22.656C232.935,20.709 236.54,19.736 240.989,19.736C243.913,19.736 246.543,20.12 248.88,20.889C251.217,21.657 253.084,22.954 254.481,24.78C255.878,26.605 256.579,28.611 256.584,30.796L256.584,63.691C256.634,63.859 257.009,64.219 257.709,64.772C258.209,65.132 258.459,65.661 258.459,66.358C258.459,67.32 258.321,67.999 258.046,68.395C257.771,68.792 257.103,69.159 256.041,69.495C254.978,69.832 253.648,70 252.048,70C250.099,70 248.474,69.657 247.174,68.972C245.875,68.287 244.863,66.947 244.138,64.952C241.963,67.115 240.201,68.498 238.852,69.099C237.502,69.7 236.115,70 234.69,70C231.521,70 229.067,68.805 227.327,66.416C225.588,64.027 224.718,60.118 224.718,54.691C224.72,49.264 225.533,45.5 227.157,43.398C228.78,41.297 231.954,39.358 236.677,37.581C239.676,36.477 242.163,35.468 244.138,34.555ZM121.325,69.495L111.384,69.495C110.885,69.495 110.574,69.309 110.449,68.936C110.325,68.564 110.262,67.644 110.262,66.178C110.262,65.505 110.596,65.036 111.262,64.772C112.545,64.219 113.187,63.594 113.187,62.897L113.187,20.276C113.187,19.243 113.088,18.468 112.89,17.951C112.693,17.434 112.248,17.007 111.556,16.671C110.939,16.382 110.525,16.07 110.315,15.733C110.105,15.397 110,14.76 110,13.822C110,12.139 110.46,11.298 111.38,11.298L121.75,11.298L134.368,39.443L134.368,18.696C134.368,17.539 133.756,16.72 132.531,16.238C131.806,15.925 131.338,15.571 131.125,15.174C130.913,14.778 130.807,14.002 130.807,12.849C130.807,12.127 130.882,11.689 131.032,11.532C131.182,11.376 131.469,11.298 131.894,11.298L142.241,11.298C142.816,11.37 143.103,12.163 143.103,13.678C143.103,14.567 143.047,15.132 142.935,15.373C142.822,15.613 142.566,15.817 142.166,15.986C141.291,16.322 140.741,16.647 140.517,16.959C140.292,17.272 140.179,17.704 140.179,18.257L140.179,69.495L133.806,69.495L119.11,36.502L119.11,61.959C119.11,63.017 119.735,63.81 120.984,64.339C122.034,64.796 122.559,65.445 122.559,66.286C122.559,68.041 122.515,69.014 122.428,69.207C122.341,69.399 121.973,69.495 121.325,69.495ZM161.101,69.495L146.588,69.495C146.239,69.447 146.015,69.297 145.915,69.044C145.815,68.792 145.765,68.125 145.765,67.043C145.765,65.745 146.09,64.988 146.74,64.772C147.54,64.507 147.939,64.026 147.939,63.329L147.939,27.38C147.939,25.986 147.402,25.144 146.327,24.856C145.878,24.736 145.653,24.387 145.653,23.81L145.653,21.43C145.653,20.637 146.152,20.24 147.152,20.24L159.111,20.24C159.961,20.24 160.386,20.637 160.386,21.43L160.386,62.897C160.386,63.474 160.423,63.846 160.496,64.014C160.57,64.183 160.791,64.339 161.159,64.483C162.043,64.82 162.485,65.565 162.485,66.719C162.485,68.041 162.423,68.834 162.298,69.099C162.174,69.363 161.775,69.495 161.101,69.495ZM341.801,69.495L327.288,69.495C326.939,69.447 326.714,69.297 326.615,69.044C326.515,68.792 326.465,68.125 326.465,67.043C326.465,65.745 326.79,64.988 327.44,64.772C328.239,64.507 328.639,64.026 328.639,63.329L328.639,27.38C328.639,25.986 328.102,25.144 327.027,24.856C326.577,24.736 326.352,24.387 326.352,23.81L326.352,21.43C326.352,20.637 326.852,20.24 327.852,20.24L339.811,20.24C340.661,20.24 341.086,20.637 341.086,21.43L341.086,62.897C341.086,63.474 341.123,63.846 341.196,64.014C341.27,64.183 341.491,64.339 341.859,64.483C342.743,64.82 343.185,65.565 343.185,66.719C343.185,68.041 343.123,68.834 342.998,69.099C342.873,69.363 342.474,69.495 341.801,69.495ZM181.68,69.495L167.547,69.495C166.572,69.495 166.084,69.05 166.084,68.161L166.084,66.178C166.084,65.505 166.297,65.06 166.722,64.844C167.572,64.435 167.996,63.81 167.996,62.969L167.996,26.659C167.996,25.841 167.696,25.252 167.097,24.892C166.447,24.531 166.072,24.249 165.972,24.044C165.872,23.84 165.822,23.221 165.822,22.188C165.822,21.322 165.953,20.781 166.216,20.565C166.478,20.349 166.922,20.24 167.547,20.24L177.669,20.24C178.144,20.24 178.468,20.367 178.643,20.619C178.818,20.871 178.906,21.478 178.906,22.44L178.906,29.832C179.206,29.255 179.568,28.245 179.993,26.803C180.943,23.678 181.874,21.719 182.786,20.925C183.698,20.132 184.704,19.736 185.804,19.736C187.304,19.736 188.434,20.421 189.197,21.791C189.959,23.161 190.34,24.88 190.34,26.947C190.34,31.394 189.041,33.618 186.441,33.618C185.142,33.618 184.142,32.885 183.442,31.418C183.017,30.577 182.58,30.156 182.13,30.156C181.005,30.156 180.443,31.346 180.443,33.726L180.443,62.536C180.443,63.45 180.88,64.123 181.755,64.555C182.63,64.964 183.067,65.625 183.067,66.538L183.067,68.161C183.067,68.738 182.998,69.105 182.861,69.261C182.724,69.417 182.33,69.495 181.68,69.495ZM277.616,69.495L263.482,69.495C262.508,69.495 262.02,69.05 262.02,68.161L262.02,66.178C262.02,65.505 262.233,65.06 262.658,64.844C263.507,64.435 263.932,63.81 263.932,62.969L263.932,26.659C263.932,25.841 263.632,25.252 263.032,24.892C262.383,24.531 262.008,24.249 261.908,24.044C261.808,23.84 261.758,23.221 261.758,22.188C261.758,21.322 261.889,20.781 262.151,20.565C262.414,20.349 262.858,20.24 263.482,20.24L273.605,20.24C274.079,20.24 274.404,20.367 274.579,20.619C274.754,20.871 274.842,21.478 274.842,22.44L274.842,29.832C275.142,29.255 275.504,28.245 275.929,26.803C276.879,23.678 277.81,21.719 278.722,20.925C279.634,20.132 280.64,19.736 281.74,19.736C283.239,19.736 284.37,20.421 285.133,21.791C285.895,23.161 286.276,24.88 286.276,26.947C286.276,31.394 284.976,33.618 282.377,33.618C281.077,33.618 280.078,32.885 279.378,31.418C278.953,30.577 278.516,30.156 278.066,30.156C276.941,30.156 276.379,31.346 276.379,33.726L276.379,62.536C276.379,63.45 276.816,64.123 277.691,64.555C278.566,64.964 279.003,65.625 279.003,66.538L279.003,68.161C279.003,68.738 278.934,69.105 278.797,69.261C278.659,69.417 278.266,69.495 277.616,69.495ZM303.409,69.495L290.1,69.495C289.45,69.495 289.038,69.405 288.863,69.225C288.688,69.044 288.6,68.594 288.6,67.873L288.6,66.538C288.6,65.841 288.825,65.349 289.275,65.06C289.875,64.651 290.262,64.267 290.437,63.906C290.612,63.546 290.7,62.752 290.7,61.526L290.7,26.262C290.7,25.421 290.275,24.808 289.425,24.423C288.95,24.207 288.713,23.822 288.713,23.269L288.713,21.358C288.713,20.613 289.063,20.24 289.763,20.24L301.984,20.24C302.509,20.24 302.834,20.313 302.959,20.457C303.084,20.601 303.146,20.901 303.146,21.358L303.146,25.144C306.121,21.538 309.52,19.736 313.344,19.736C315.955,19.736 317.952,20.547 319.332,22.169C320.713,23.792 321.404,25.829 321.404,28.281L321.404,62.825C321.404,63.594 321.716,64.183 322.341,64.591C322.916,64.928 323.203,65.793 323.203,67.188C323.203,68.293 323.11,68.954 322.922,69.171C322.735,69.387 322.341,69.495 321.741,69.495L311.207,69.495C309.707,68.269 308.957,66.671 308.957,64.7L308.957,30.409C308.957,28.534 308.157,27.596 306.558,27.596C305.508,27.596 304.371,28.125 303.146,29.183L303.146,62.825C303.146,63.69 303.584,64.363 304.458,64.844C304.983,65.132 305.246,65.661 305.246,66.43L305.246,68.269C305.246,69.087 304.633,69.495 303.409,69.495ZM365.679,39.243C362.855,40.443 361.168,41.793 360.618,43.293C360.068,44.793 359.793,48.171 359.793,53.428C359.793,57.292 360.018,59.734 360.468,60.754C360.918,61.774 361.693,62.284 362.792,62.284C364.717,62.284 365.679,60.748 365.679,57.676L365.679,39.243ZM244.138,39.243C241.314,40.443 239.626,41.793 239.077,43.293C238.527,44.793 238.252,48.171 238.252,53.428C238.252,57.292 238.477,59.734 238.927,60.754C239.377,61.774 240.151,62.284 241.251,62.284C243.176,62.284 244.138,60.748 244.138,57.676L244.138,39.243ZM156.15,10C158.974,10 160.386,10.913 160.386,12.74C160.386,14.183 159.443,15.403 157.556,16.4C155.669,17.398 153.525,17.897 151.126,17.897C148.027,17.897 146.477,16.899 146.477,14.904C146.477,13.317 147.565,12.103 149.739,11.262C151.913,10.421 154.05,10 156.15,10ZM336.849,10C339.674,10 341.086,10.913 341.086,12.74C341.086,14.183 340.142,15.403 338.255,16.4C336.368,17.398 334.225,17.897 331.826,17.897C328.727,17.897 327.177,16.899 327.177,14.904C327.177,13.317 328.264,12.103 330.439,11.262C332.613,10.421 334.75,10 336.849,10Z" style="fill:rgb(250,223,116);" />
</svg>
