<?xml version="1.0" encoding="utf-8"?>
<svg focusable="false" height="100%" shape-rendering="geometricPrecision" version="1.1" viewBox="0 0 400 80" width="100%" xmlns="http://www.w3.org/2000/svg">
  <title>Nirvarnia</title>
    <rect id="background" x="0" y="0" width="400" height="80" style="fill:#fff;"/>
    <path id="logotype" d="M193.214,65L187.845,65C187.553,64.96 187.241,64.159 186.908,62.596L180.043,29.363C179.835,28.401 179.502,27.74 179.043,27.38C178.481,26.919 178.2,26.508 178.2,26.148C178.2,24.766 178.262,23.984 178.387,23.804C178.512,23.624 178.897,23.534 179.543,23.534L190.504,23.534C191.108,23.534 191.508,23.659 191.706,23.909C191.904,24.16 192.003,24.766 192.003,25.727C192.003,26.288 191.956,26.649 191.862,26.809C191.768,26.969 191.492,27.169 191.034,27.41C190.472,27.71 190.191,28.131 190.191,28.671C190.191,29.052 190.253,29.513 190.378,30.053L193.785,46.545L197.306,30.059C197.369,29.718 197.4,29.387 197.4,29.066C197.4,28.223 197.056,27.591 196.369,27.169C195.953,26.929 195.744,26.488 195.744,25.847L195.744,24.225C195.744,23.764 195.983,23.534 196.461,23.534L202.446,23.534C202.924,23.534 203.22,23.589 203.334,23.699C203.448,23.809 203.505,24.105 203.505,24.585L203.505,26.028C203.505,26.428 203.49,26.679 203.458,26.779C203.427,26.879 203.172,27.079 202.693,27.38C202.027,27.821 201.558,28.712 201.287,30.054L194.744,61.845C194.39,63.628 194.167,64.599 194.073,64.76C193.979,64.92 193.693,65 193.214,65ZM323.066,35.463L323.066,29.663C323.066,28.061 322.389,27.26 321.035,27.26C319.181,27.26 318.255,28.472 318.255,30.895C318.255,32.258 318.093,33.229 317.77,33.81C317.448,34.391 316.719,34.887 315.584,35.297C314.448,35.708 313.235,35.913 311.944,35.913C309.299,35.913 307.976,34.551 307.976,31.827C307.976,29.263 309.127,27.169 311.428,25.547C313.73,23.924 316.734,23.113 320.442,23.113C322.878,23.113 325.07,23.433 327.018,24.074C328.965,24.714 330.521,25.795 331.685,27.316C332.849,28.838 333.434,30.509 333.438,32.33L333.438,59.743C333.48,59.882 333.792,60.183 334.375,60.643C334.792,60.944 335,61.384 335,61.965C335,62.766 334.885,63.332 334.656,63.663C334.427,63.993 333.87,64.299 332.985,64.579C332.1,64.86 330.991,65 329.658,65C328.033,65 326.679,64.715 325.596,64.144C324.513,63.573 323.67,62.456 323.066,60.793C321.254,62.596 319.785,63.748 318.661,64.249C317.536,64.75 316.38,65 315.193,65C312.552,65 310.507,64.004 309.057,62.013C307.608,60.022 306.883,56.765 306.883,52.243C306.885,47.72 307.562,44.583 308.915,42.832C310.268,41.081 312.912,39.465 316.849,37.984C319.348,37.064 321.42,36.223 323.066,35.463ZM221.781,35.463L221.781,29.663C221.781,28.061 221.105,27.26 219.751,27.26C217.897,27.26 216.97,28.472 216.97,30.895C216.97,32.258 216.809,33.229 216.486,33.81C216.163,34.391 215.434,34.887 214.299,35.297C213.164,35.708 211.951,35.913 210.66,35.913C208.014,35.913 206.692,34.551 206.692,31.827C206.692,29.263 207.843,27.169 210.144,25.547C212.446,23.924 215.45,23.113 219.157,23.113C221.594,23.113 223.786,23.433 225.733,24.074C227.681,24.714 229.237,25.795 230.401,27.316C231.565,28.838 232.149,30.509 232.154,32.33L232.154,59.743C232.195,59.882 232.508,60.183 233.091,60.643C233.507,60.944 233.716,61.384 233.716,61.965C233.716,62.766 233.601,63.332 233.372,63.663C233.143,63.993 232.586,64.299 231.701,64.579C230.815,64.86 229.706,65 228.373,65C226.749,65 225.395,64.715 224.312,64.144C223.229,63.573 222.385,62.456 221.781,60.793C219.969,62.596 218.501,63.748 217.376,64.249C216.252,64.75 215.096,65 213.909,65C211.268,65 209.223,64.004 207.773,62.013C206.323,60.022 205.598,56.765 205.598,52.243C205.6,47.72 206.278,44.583 207.631,42.832C208.983,41.081 211.628,39.465 215.564,37.984C218.064,37.064 220.136,36.223 221.781,35.463ZM119.438,64.579L111.153,64.579C110.738,64.579 110.478,64.424 110.374,64.114C110.271,63.803 110.219,63.037 110.219,61.815C110.219,61.254 110.496,60.863 111.051,60.643C112.121,60.182 112.656,59.661 112.656,59.081L112.656,23.564C112.656,22.702 112.573,22.056 112.409,21.626C112.244,21.195 111.873,20.839 111.297,20.559C110.782,20.319 110.437,20.058 110.262,19.778C110.087,19.497 110,18.966 110,18.185C110,16.783 110.383,16.082 111.15,16.082L119.792,16.082L130.307,39.536L130.307,22.246C130.307,21.283 129.797,20.6 128.776,20.198C128.172,19.938 127.782,19.642 127.604,19.312C127.427,18.981 127.339,18.335 127.339,17.374C127.339,16.773 127.401,16.407 127.526,16.277C127.651,16.147 127.891,16.082 128.245,16.082L136.868,16.082C137.347,16.142 137.586,16.803 137.586,18.065C137.586,18.806 137.539,19.277 137.446,19.477C137.352,19.677 137.138,19.848 136.805,19.988C136.076,20.268 135.618,20.539 135.43,20.799C135.243,21.06 135.149,21.42 135.149,21.881L135.149,64.579L129.838,64.579L117.592,37.085L117.592,58.299C117.592,59.181 118.112,59.842 119.154,60.282C120.028,60.663 120.466,61.204 120.466,61.905C120.466,63.367 120.429,64.179 120.357,64.339C120.284,64.499 119.978,64.579 119.438,64.579ZM152.584,64.579L140.49,64.579C140.199,64.539 140.012,64.414 139.929,64.204C139.846,63.993 139.804,63.437 139.804,62.536C139.804,61.454 140.075,60.823 140.616,60.643C141.283,60.423 141.616,60.022 141.616,59.441L141.616,29.483C141.616,28.321 141.168,27.62 140.273,27.38C139.898,27.28 139.71,26.989 139.71,26.508L139.71,24.525C139.71,23.864 140.127,23.534 140.96,23.534L150.926,23.534C151.634,23.534 151.988,23.864 151.988,24.525L151.988,59.081C151.988,59.561 152.019,59.872 152.08,60.012C152.142,60.152 152.326,60.282 152.633,60.403C153.369,60.683 153.738,61.304 153.738,62.266C153.738,63.367 153.686,64.028 153.582,64.249C153.478,64.469 153.145,64.579 152.584,64.579ZM303.168,64.579L291.073,64.579C290.782,64.539 290.595,64.414 290.512,64.204C290.429,63.993 290.387,63.437 290.387,62.536C290.387,61.454 290.658,60.823 291.2,60.643C291.866,60.423 292.199,60.022 292.199,59.441L292.199,29.483C292.199,28.321 291.752,27.62 290.856,27.38C290.481,27.28 290.294,26.989 290.294,26.508L290.294,24.525C290.294,23.864 290.71,23.534 291.543,23.534L301.509,23.534C302.217,23.534 302.572,23.864 302.572,24.525L302.572,59.081C302.572,59.561 302.602,59.872 302.664,60.012C302.725,60.152 302.909,60.282 303.216,60.403C303.953,60.683 304.321,61.304 304.321,62.266C304.321,63.367 304.269,64.028 304.165,64.249C304.061,64.469 303.729,64.579 303.168,64.579ZM169.733,64.579L157.955,64.579C157.143,64.579 156.737,64.209 156.737,63.468L156.737,61.815C156.737,61.254 156.914,60.883 157.268,60.703C157.976,60.363 158.33,59.842 158.33,59.141L158.33,28.882C158.33,28.201 158.08,27.71 157.581,27.41C157.039,27.109 156.727,26.874 156.643,26.704C156.56,26.533 156.518,26.018 156.518,25.156C156.518,24.435 156.628,23.984 156.846,23.804C157.065,23.624 157.435,23.534 157.955,23.534L166.391,23.534C166.786,23.534 167.057,23.639 167.203,23.849C167.349,24.059 167.422,24.565 167.422,25.367L167.422,31.526C167.671,31.046 167.973,30.204 168.328,29.002C169.119,26.398 169.895,24.766 170.655,24.105C171.415,23.444 172.254,23.113 173.17,23.113C174.42,23.113 175.362,23.684 175.997,24.826C176.633,25.968 176.95,27.4 176.95,29.123C176.95,32.829 175.867,34.681 173.701,34.681C172.618,34.681 171.785,34.071 171.202,32.849C170.848,32.147 170.483,31.797 170.108,31.797C169.171,31.797 168.702,32.788 168.702,34.772L168.702,58.78C168.702,59.541 169.067,60.102 169.796,60.463C170.525,60.803 170.889,61.354 170.889,62.115L170.889,63.468C170.889,63.948 170.832,64.254 170.718,64.384C170.603,64.514 170.275,64.579 169.733,64.579ZM249.68,64.579L237.902,64.579C237.09,64.579 236.684,64.209 236.684,63.468L236.684,61.815C236.684,61.254 236.861,60.883 237.215,60.703C237.923,60.363 238.277,59.842 238.277,59.141L238.277,28.882C238.277,28.201 238.027,27.71 237.527,27.41C236.986,27.109 236.673,26.874 236.59,26.704C236.507,26.533 236.465,26.018 236.465,25.156C236.465,24.435 236.574,23.984 236.793,23.804C237.012,23.624 237.381,23.534 237.902,23.534L246.337,23.534C246.733,23.534 247.004,23.639 247.149,23.849C247.295,24.059 247.368,24.565 247.368,25.367L247.368,31.526C247.618,31.046 247.92,30.204 248.274,29.002C249.066,26.398 249.841,24.766 250.602,24.105C251.362,23.444 252.2,23.113 253.116,23.113C254.366,23.113 255.309,23.684 255.944,24.826C256.579,25.968 256.897,27.4 256.897,29.123C256.897,32.829 255.814,34.681 253.648,34.681C252.565,34.681 251.731,34.071 251.148,32.849C250.794,32.147 250.43,31.797 250.055,31.797C249.118,31.797 248.649,32.788 248.649,34.772L248.649,58.78C248.649,59.541 249.013,60.102 249.742,60.463C250.471,60.803 250.836,61.354 250.836,62.115L250.836,63.468C250.836,63.948 250.779,64.254 250.664,64.384C250.55,64.514 250.222,64.579 249.68,64.579ZM271.174,64.579L260.083,64.579C259.542,64.579 259.198,64.504 259.052,64.354C258.907,64.204 258.834,63.828 258.834,63.227L258.834,62.115C258.834,61.534 259.021,61.124 259.396,60.883C259.896,60.543 260.219,60.222 260.364,59.922C260.51,59.621 260.583,58.96 260.583,57.939L260.583,28.552C260.583,27.851 260.229,27.34 259.521,27.019C259.125,26.839 258.927,26.518 258.927,26.058L258.927,24.465C258.927,23.844 259.219,23.534 259.802,23.534L269.987,23.534C270.424,23.534 270.695,23.594 270.799,23.714C270.903,23.834 270.955,24.085 270.955,24.465L270.955,27.62C273.434,24.615 276.266,23.113 279.453,23.113C281.629,23.113 283.293,23.789 284.444,25.141C285.594,26.493 286.17,28.191 286.17,30.234L286.17,59.02C286.17,59.661 286.43,60.152 286.951,60.493C287.43,60.773 287.669,61.494 287.669,62.656C287.669,63.578 287.591,64.129 287.435,64.309C287.279,64.489 286.951,64.579 286.451,64.579L277.672,64.579C276.423,63.558 275.798,62.226 275.798,60.583L275.798,32.007C275.798,30.445 275.131,29.663 273.798,29.663C272.923,29.663 271.976,30.104 270.955,30.986L270.955,59.02C270.955,59.742 271.32,60.302 272.049,60.703C272.486,60.944 272.705,61.384 272.705,62.025L272.705,63.558C272.705,64.239 272.195,64.579 271.174,64.579ZM323.066,39.369C320.712,40.369 319.306,41.494 318.848,42.744C318.39,43.994 318.161,46.809 318.161,51.19C318.161,54.41 318.348,56.445 318.723,57.295C319.098,58.145 319.744,58.57 320.66,58.57C322.264,58.57 323.066,57.29 323.066,54.73L323.066,39.369ZM221.781,39.369C219.428,40.369 218.022,41.494 217.564,42.744C217.106,43.994 216.877,46.809 216.877,51.19C216.877,54.41 217.064,56.445 217.439,57.295C217.814,58.145 218.459,58.57 219.376,58.57C220.98,58.57 221.781,57.29 221.781,54.73L221.781,39.369ZM148.458,15C150.812,15 151.988,15.761 151.988,17.284C151.988,18.486 151.202,19.502 149.63,20.334C148.057,21.165 146.271,21.581 144.272,21.581C141.689,21.581 140.398,20.749 140.398,19.087C140.398,17.764 141.304,16.753 143.116,16.052C144.928,15.351 146.709,15 148.458,15ZM299.041,15C301.395,15 302.572,15.761 302.572,17.284C302.572,18.486 301.785,19.502 300.213,20.334C298.64,21.165 296.854,21.581 294.855,21.581C292.272,21.581 290.981,20.749 290.981,19.087C290.981,17.764 291.887,16.753 293.699,16.052C295.511,15.351 297.292,15 299.041,15Z" style="fill:rgb(248,209,59);" />
    <g id="logomark">
      <path id="tl" d="M42.505,14.568L42.505,46.894L14.142,46.894C6.334,46.857 0,40.34 0,32.339L0,0L28.361,0C36.133,0.043 42.505,6.565 42.505,14.568Z" style="fill:rgb(250,223,116);"/>
      <path id="bl" d="M42.505,71.15L42.505,51.601L25.238,51.601C20.526,51.601 16.676,55.583 16.676,60.405L16.676,80L33.944,80C38.654,79.959 42.505,76.018 42.505,71.15Z" style="fill:rgb(250,223,116);"/>
      <path id="tr" d="M47.493,14.568L47.493,46.894L75.858,46.894C83.667,46.856 90,40.338 90,32.338L90,0L61.637,0C53.867,0.043 47.493,6.565 47.493,14.568Z" style="fill:rgb(250,223,116);"/>
      <path id="br" d="M47.493,71.15C47.493,76.018 51.343,79.959 56.059,80L73.323,80L73.323,60.405C73.323,55.583 69.477,51.601 64.762,51.601L47.493,51.601L47.493,71.15Z" style="fill:rgb(250,223,116);"/>
    </g>
</svg>
