<?xml version="1.0" encoding="utf-8"?>
<svg focusable="false" height="40" shape-rendering="geometricPrecision" version="1.1" viewBox="0 0 90 80" width="45" xmlns="http://www.w3.org/2000/svg">
  <title>Nirvarnia</title>
  <g id="logomark">
    <path id="tl" d="M42.505,14.568L42.505,46.894L14.142,46.894C6.334,46.857 0,40.34 0,32.339L0,0L28.361,0C36.133,0.043 42.505,6.565 42.505,14.568Z" style="fill:rgb(250,223,116);fill-rule:nonzero;"/>
    <path id="bl" d="M42.505,71.15L42.505,51.601L25.238,51.601C20.526,51.601 16.676,55.583 16.676,60.405L16.676,80L33.944,80C38.654,79.959 42.505,76.018 42.505,71.15Z" style="fill:rgb(250,223,116);fill-rule:nonzero;"/>
    <path id="tr" d="M47.493,14.568L47.493,46.894L75.858,46.894C83.667,46.856 90,40.338 90,32.338L90,0L61.637,0C53.867,0.043 47.493,6.565 47.493,14.568Z" style="fill:rgb(250,223,116);fill-rule:nonzero;"/>
    <path id="br" d="M47.493,71.15C47.493,76.018 51.343,79.959 56.059,80L73.323,80L73.323,60.405C73.323,55.583 69.477,51.601 64.762,51.601L47.493,51.601L47.493,71.15Z" style="fill:rgb(250,223,116);fill-rule:nonzero;"/>
  </g>
</svg>
