<?xml version="1.0" encoding="utf-8"?>
<svg focusable="false" height="80" shape-rendering="geometricPrecision" version="1.1" viewBox="0 0 400 80" width="400" xmlns="http://www.w3.org/2000/svg">
  <title>Nirvarnia</title>
    <rect id="background" x="0" y="0" width="400" height="80" style="fill:#fff;"/>
    <path id="logotype" d="M213.214,65L207.845,65C207.553,64.96 207.241,64.159 206.908,62.596L200.043,29.363C199.835,28.401 199.502,27.74 199.043,27.38C198.481,26.919 198.2,26.508 198.2,26.148C198.2,24.766 198.262,23.984 198.387,23.804C198.512,23.624 198.897,23.534 199.543,23.534L210.504,23.534C211.108,23.534 211.508,23.659 211.706,23.909C211.904,24.16 212.003,24.766 212.003,25.727C212.003,26.288 211.956,26.649 211.862,26.809C211.768,26.969 211.492,27.169 211.034,27.41C210.472,27.71 210.191,28.131 210.191,28.671C210.191,29.052 210.253,29.513 210.378,30.053L213.785,46.545L217.306,30.059C217.369,29.718 217.4,29.387 217.4,29.066C217.4,28.223 217.056,27.591 216.369,27.169C215.953,26.929 215.744,26.488 215.744,25.847L215.744,24.225C215.744,23.764 215.983,23.534 216.461,23.534L222.446,23.534C222.924,23.534 223.22,23.589 223.334,23.699C223.448,23.809 223.505,24.105 223.505,24.585L223.505,26.028C223.505,26.428 223.49,26.679 223.458,26.779C223.427,26.879 223.172,27.079 222.693,27.38C222.027,27.821 221.558,28.712 221.287,30.054L214.744,61.845C214.39,63.628 214.167,64.599 214.073,64.76C213.979,64.92 213.693,65 213.214,65ZM343.066,35.463L343.066,29.663C343.066,28.061 342.389,27.26 341.035,27.26C339.181,27.26 338.255,28.472 338.255,30.895C338.255,32.258 338.093,33.229 337.77,33.81C337.448,34.391 336.719,34.887 335.584,35.297C334.448,35.708 333.235,35.913 331.944,35.913C329.299,35.913 327.976,34.551 327.976,31.827C327.976,29.263 329.127,27.169 331.428,25.547C333.73,23.924 336.734,23.113 340.442,23.113C342.878,23.113 345.07,23.433 347.018,24.074C348.965,24.714 350.521,25.795 351.685,27.316C352.849,28.838 353.434,30.509 353.438,32.33L353.438,59.743C353.48,59.882 353.792,60.183 354.375,60.643C354.792,60.944 355,61.384 355,61.965C355,62.766 354.885,63.332 354.656,63.663C354.427,63.993 353.87,64.299 352.985,64.579C352.1,64.86 350.991,65 349.658,65C348.033,65 346.679,64.715 345.596,64.144C344.513,63.573 343.67,62.456 343.066,60.793C341.254,62.596 339.785,63.748 338.661,64.249C337.536,64.75 336.38,65 335.193,65C332.552,65 330.507,64.004 329.057,62.013C327.608,60.022 326.883,56.765 326.883,52.243C326.885,47.72 327.562,44.583 328.915,42.832C330.268,41.081 332.912,39.465 336.849,37.984C339.348,37.064 341.42,36.223 343.066,35.463ZM241.781,35.463L241.781,29.663C241.781,28.061 241.105,27.26 239.751,27.26C237.897,27.26 236.97,28.472 236.97,30.895C236.97,32.258 236.809,33.229 236.486,33.81C236.163,34.391 235.434,34.887 234.299,35.297C233.164,35.708 231.951,35.913 230.66,35.913C228.014,35.913 226.692,34.551 226.692,31.827C226.692,29.263 227.843,27.169 230.144,25.547C232.446,23.924 235.45,23.113 239.157,23.113C241.594,23.113 243.786,23.433 245.733,24.074C247.681,24.714 249.237,25.795 250.401,27.316C251.565,28.838 252.149,30.509 252.154,32.33L252.154,59.743C252.195,59.882 252.508,60.183 253.091,60.643C253.507,60.944 253.716,61.384 253.716,61.965C253.716,62.766 253.601,63.332 253.372,63.663C253.143,63.993 252.586,64.299 251.701,64.579C250.815,64.86 249.706,65 248.373,65C246.749,65 245.395,64.715 244.312,64.144C243.229,63.573 242.385,62.456 241.781,60.793C239.969,62.596 238.501,63.748 237.376,64.249C236.252,64.75 235.096,65 233.909,65C231.268,65 229.223,64.004 227.773,62.013C226.323,60.022 225.598,56.765 225.598,52.243C225.6,47.72 226.278,44.583 227.631,42.832C228.983,41.081 231.628,39.465 235.564,37.984C238.064,37.064 240.136,36.223 241.781,35.463ZM139.438,64.579L131.153,64.579C130.738,64.579 130.478,64.424 130.374,64.114C130.271,63.803 130.219,63.037 130.219,61.815C130.219,61.254 130.496,60.863 131.051,60.643C132.121,60.182 132.656,59.661 132.656,59.081L132.656,23.564C132.656,22.702 132.573,22.056 132.409,21.626C132.244,21.195 131.873,20.839 131.297,20.559C130.782,20.319 130.437,20.058 130.262,19.778C130.087,19.497 130,18.966 130,18.185C130,16.783 130.383,16.082 131.15,16.082L139.792,16.082L150.307,39.536L150.307,22.246C150.307,21.283 149.797,20.6 148.776,20.198C148.172,19.938 147.782,19.642 147.604,19.312C147.427,18.981 147.339,18.335 147.339,17.374C147.339,16.773 147.401,16.407 147.526,16.277C147.651,16.147 147.891,16.082 148.245,16.082L156.868,16.082C157.347,16.142 157.586,16.803 157.586,18.065C157.586,18.806 157.539,19.277 157.446,19.477C157.352,19.677 157.138,19.848 156.805,19.988C156.076,20.268 155.618,20.539 155.43,20.799C155.243,21.06 155.149,21.42 155.149,21.881L155.149,64.579L149.838,64.579L137.592,37.085L137.592,58.299C137.592,59.181 138.112,59.842 139.154,60.282C140.028,60.663 140.466,61.204 140.466,61.905C140.466,63.367 140.429,64.179 140.357,64.339C140.284,64.499 139.978,64.579 139.438,64.579ZM172.584,64.579L160.49,64.579C160.199,64.539 160.012,64.414 159.929,64.204C159.846,63.993 159.804,63.437 159.804,62.536C159.804,61.454 160.075,60.823 160.616,60.643C161.283,60.423 161.616,60.022 161.616,59.441L161.616,29.483C161.616,28.321 161.168,27.62 160.273,27.38C159.898,27.28 159.71,26.989 159.71,26.508L159.71,24.525C159.71,23.864 160.127,23.534 160.96,23.534L170.926,23.534C171.634,23.534 171.988,23.864 171.988,24.525L171.988,59.081C171.988,59.561 172.019,59.872 172.08,60.012C172.142,60.152 172.326,60.282 172.633,60.403C173.369,60.683 173.738,61.304 173.738,62.266C173.738,63.367 173.686,64.028 173.582,64.249C173.478,64.469 173.145,64.579 172.584,64.579ZM323.168,64.579L311.073,64.579C310.782,64.539 310.595,64.414 310.512,64.204C310.429,63.993 310.387,63.437 310.387,62.536C310.387,61.454 310.658,60.823 311.2,60.643C311.866,60.423 312.199,60.022 312.199,59.441L312.199,29.483C312.199,28.321 311.752,27.62 310.856,27.38C310.481,27.28 310.294,26.989 310.294,26.508L310.294,24.525C310.294,23.864 310.71,23.534 311.543,23.534L321.509,23.534C322.217,23.534 322.572,23.864 322.572,24.525L322.572,59.081C322.572,59.561 322.602,59.872 322.664,60.012C322.725,60.152 322.909,60.282 323.216,60.403C323.953,60.683 324.321,61.304 324.321,62.266C324.321,63.367 324.269,64.028 324.165,64.249C324.061,64.469 323.729,64.579 323.168,64.579ZM189.733,64.579L177.955,64.579C177.143,64.579 176.737,64.209 176.737,63.468L176.737,61.815C176.737,61.254 176.914,60.883 177.268,60.703C177.976,60.363 178.33,59.842 178.33,59.141L178.33,28.882C178.33,28.201 178.08,27.71 177.581,27.41C177.039,27.109 176.727,26.874 176.643,26.704C176.56,26.533 176.518,26.018 176.518,25.156C176.518,24.435 176.628,23.984 176.846,23.804C177.065,23.624 177.435,23.534 177.955,23.534L186.391,23.534C186.786,23.534 187.057,23.639 187.203,23.849C187.349,24.059 187.422,24.565 187.422,25.367L187.422,31.526C187.671,31.046 187.973,30.204 188.328,29.002C189.119,26.398 189.895,24.766 190.655,24.105C191.415,23.444 192.254,23.113 193.17,23.113C194.42,23.113 195.362,23.684 195.997,24.826C196.633,25.968 196.95,27.4 196.95,29.123C196.95,32.829 195.867,34.681 193.701,34.681C192.618,34.681 191.785,34.071 191.202,32.849C190.848,32.147 190.483,31.797 190.108,31.797C189.171,31.797 188.702,32.788 188.702,34.772L188.702,58.78C188.702,59.541 189.067,60.102 189.796,60.463C190.525,60.803 190.889,61.354 190.889,62.115L190.889,63.468C190.889,63.948 190.832,64.254 190.718,64.384C190.603,64.514 190.275,64.579 189.733,64.579ZM269.68,64.579L257.902,64.579C257.09,64.579 256.684,64.209 256.684,63.468L256.684,61.815C256.684,61.254 256.861,60.883 257.215,60.703C257.923,60.363 258.277,59.842 258.277,59.141L258.277,28.882C258.277,28.201 258.027,27.71 257.527,27.41C256.986,27.109 256.673,26.874 256.59,26.704C256.507,26.533 256.465,26.018 256.465,25.156C256.465,24.435 256.574,23.984 256.793,23.804C257.012,23.624 257.381,23.534 257.902,23.534L266.337,23.534C266.733,23.534 267.004,23.639 267.149,23.849C267.295,24.059 267.368,24.565 267.368,25.367L267.368,31.526C267.618,31.046 267.92,30.204 268.274,29.002C269.066,26.398 269.841,24.766 270.602,24.105C271.362,23.444 272.2,23.113 273.116,23.113C274.366,23.113 275.309,23.684 275.944,24.826C276.579,25.968 276.897,27.4 276.897,29.123C276.897,32.829 275.814,34.681 273.648,34.681C272.565,34.681 271.731,34.071 271.148,32.849C270.794,32.147 270.43,31.797 270.055,31.797C269.118,31.797 268.649,32.788 268.649,34.772L268.649,58.78C268.649,59.541 269.013,60.102 269.742,60.463C270.471,60.803 270.836,61.354 270.836,62.115L270.836,63.468C270.836,63.948 270.779,64.254 270.664,64.384C270.55,64.514 270.222,64.579 269.68,64.579ZM291.174,64.579L280.083,64.579C279.542,64.579 279.198,64.504 279.052,64.354C278.907,64.204 278.834,63.828 278.834,63.227L278.834,62.115C278.834,61.534 279.021,61.124 279.396,60.883C279.896,60.543 280.219,60.222 280.364,59.922C280.51,59.621 280.583,58.96 280.583,57.939L280.583,28.552C280.583,27.851 280.229,27.34 279.521,27.019C279.125,26.839 278.927,26.518 278.927,26.058L278.927,24.465C278.927,23.844 279.219,23.534 279.802,23.534L289.987,23.534C290.424,23.534 290.695,23.594 290.799,23.714C290.903,23.834 290.955,24.085 290.955,24.465L290.955,27.62C293.434,24.615 296.266,23.113 299.453,23.113C301.629,23.113 303.293,23.789 304.444,25.141C305.594,26.493 306.17,28.191 306.17,30.234L306.17,59.02C306.17,59.661 306.43,60.152 306.951,60.493C307.43,60.773 307.669,61.494 307.669,62.656C307.669,63.578 307.591,64.129 307.435,64.309C307.279,64.489 306.951,64.579 306.451,64.579L297.672,64.579C296.423,63.558 295.798,62.226 295.798,60.583L295.798,32.007C295.798,30.445 295.131,29.663 293.798,29.663C292.923,29.663 291.976,30.104 290.955,30.986L290.955,59.02C290.955,59.742 291.32,60.302 292.049,60.703C292.486,60.944 292.705,61.384 292.705,62.025L292.705,63.558C292.705,64.239 292.195,64.579 291.174,64.579ZM343.066,39.369C340.712,40.369 339.306,41.494 338.848,42.744C338.39,43.994 338.161,46.809 338.161,51.19C338.161,54.41 338.348,56.445 338.723,57.295C339.098,58.145 339.744,58.57 340.66,58.57C342.264,58.57 343.066,57.29 343.066,54.73L343.066,39.369ZM241.781,39.369C239.428,40.369 238.022,41.494 237.564,42.744C237.106,43.994 236.877,46.809 236.877,51.19C236.877,54.41 237.064,56.445 237.439,57.295C237.814,58.145 238.459,58.57 239.376,58.57C240.98,58.57 241.781,57.29 241.781,54.73L241.781,39.369ZM168.458,15C170.812,15 171.988,15.761 171.988,17.284C171.988,18.486 171.202,19.502 169.63,20.334C168.057,21.165 166.271,21.581 164.272,21.581C161.689,21.581 160.398,20.749 160.398,19.087C160.398,17.764 161.304,16.753 163.116,16.052C164.928,15.351 166.709,15 168.458,15ZM319.041,15C321.395,15 322.572,15.761 322.572,17.284C322.572,18.486 321.785,19.502 320.213,20.334C318.64,21.165 316.854,21.581 314.855,21.581C312.272,21.581 310.981,20.749 310.981,19.087C310.981,17.764 311.887,16.753 313.699,16.052C315.511,15.351 317.292,15 319.041,15Z" style="fill:rgb(248,209,59);" />
    <g id="logomark">
      <path id="tl" d="M42.505,14.568L42.505,46.894L14.142,46.894C6.334,46.857 0,40.34 0,32.339L0,0L28.361,0C36.133,0.043 42.505,6.565 42.505,14.568Z" style="fill:rgb(250,223,116);"/>
      <path id="bl" d="M42.505,71.15L42.505,51.601L25.238,51.601C20.526,51.601 16.676,55.583 16.676,60.405L16.676,80L33.944,80C38.654,79.959 42.505,76.018 42.505,71.15Z" style="fill:rgb(250,223,116);"/>
      <path id="tr" d="M47.493,14.568L47.493,46.894L75.858,46.894C83.667,46.856 90,40.338 90,32.338L90,0L61.637,0C53.867,0.043 47.493,6.565 47.493,14.568Z" style="fill:rgb(250,223,116);"/>
      <path id="br" d="M47.493,71.15C47.493,76.018 51.343,79.959 56.059,80L73.323,80L73.323,60.405C73.323,55.583 69.477,51.601 64.762,51.601L47.493,51.601L47.493,71.15Z" style="fill:rgb(250,223,116);"/>
    </g>
</svg>
